<svg height="512pt" viewBox="-6 0 511 512" width="512pt" xmlns="http://www.w3.org/2000/svg"><path d="m499.074219 249.289062c0 137.675782-111.609375 249.285157-249.285157 249.285157-137.679687 0-249.289062-111.609375-249.289062-249.285157 0-137.679687 111.609375-249.289062 249.289062-249.289062 137.675782 0 249.285157 111.609375 249.285157 249.289062zm0 0" fill="#ff8b00"/><path d="m249.789062 0v498.578125c137.675782 0 249.285157-111.609375 249.285157-249.289063 0-137.679687-111.609375-249.289062-249.285157-249.289062zm0 0" fill="#ed500a"/><path d="m39.214844 115.816406c-24.511719 38.589844-38.714844 84.371094-38.714844 133.472656 0 137.675782 111.609375 249.285157 249.289062 249.285157 88.6875 0 166.550782-46.320313 210.738282-116.082031zm0 0" fill="#6e6e6e"/><path d="m249.855469 249.144531-210.640625-133.328125c-24.511719 38.589844-38.714844 84.371094-38.714844 133.472656 0 51 15.328125 98.414063 41.609375 137.914063zm0 0" fill="#ffa300"/><path d="m39.214844 115.816406c-24.511719 38.589844-38.714844 84.371094-38.714844 133.472656 0 18.019532 1.929688 35.585938 5.5625 52.519532l243.839844-52.632813zm0 0" fill="#ffe3dc"/><path d="m39.214844 115.816406c-24.511719 38.589844-38.714844 84.371094-38.714844 133.472656h249.582031zm0 0" fill="#ffc50d"/><path d="m273.332031 1.113281c104.476563 29.695313 180.992188 125.820313 180.992188 239.816407 0 122.398437-88.214844 224.1875-204.535157 245.273437v12.371094c137.675782 0 249.285157-111.609375 249.285157-249.285157 0-129.738281-99.109375-236.308593-225.742188-248.175781zm0 0" fill="#db3317"/><path d="m424.328125 359.578125c-42.183594 77.808594-124.566406 130.640625-219.292969 130.640625-7.941406 0-15.792968-.386719-23.542968-1.113281 21.703124 6.167969 44.613281 9.472656 68.296874 9.472656 88.6875 0 166.550782-46.324219 210.738282-116.085937zm0 0" fill="#5c5c5c"/><g fill="#ffc50d"><path d="m274.144531 512h-81.191406c-4.832031 0-8.75-3.914062-8.75-8.746094v-26.664062h98.691406v26.664062c0 4.832032-3.917969 8.746094-8.75 8.746094zm0 0"/><path d="m184.203125 441.175781h98.691406v35.414063h-98.691406zm0 0"/><path d="m184.203125 405.765625h98.691406v35.410156h-98.691406zm0 0"/><path d="m282.894531 405.765625h-98.691406v-26.664063c0-4.832031 3.917969-8.746093 8.75-8.746093h81.191406c4.832031 0 8.75 3.914062 8.75 8.746093zm0 0"/></g><path d="m256.1875 476.589844v15.09375c0 5.128906-4.15625 9.285156-9.285156 9.285156h-62.699219v.875c0 5.609375 4.550781 10.15625 10.15625 10.15625h78.378906c5.609375 0 10.152344-4.546875 10.152344-10.15625v-25.253906zm0 0" fill="#ffa300"/><path d="m256.1875 441.175781v15.09375c0 5.128907-4.15625 9.289063-9.285156 9.289063h-62.699219v11.03125h98.691406v-35.414063zm0 0" fill="#ffa300"/><path d="m256.1875 405.765625v15.09375c0 5.128906-4.15625 9.289063-9.285156 9.289063h-62.699219v11.027343h98.691406v-35.410156zm0 0" fill="#ffa300"/><path d="m471.519531 512h-81.191406c-4.832031 0-8.75-3.914062-8.75-8.746094v-26.664062h98.691406v26.664062c0 4.832032-3.917969 8.746094-8.75 8.746094zm0 0" fill="#ffc50d"/><path d="m381.578125 441.175781h98.691406v35.414063h-98.691406zm0 0" fill="#ffc50d"/><path d="m453.5625 476.589844v15.09375c0 5.128906-4.15625 9.285156-9.285156 9.285156h-62.699219v.875c0 5.609375 4.550781 10.15625 10.15625 10.15625h78.378906c5.609375 0 10.152344-4.546875 10.152344-10.15625v-25.253906zm0 0" fill="#ffa300"/><path d="m453.5625 441.175781v15.09375c0 5.128907-4.15625 9.289063-9.285156 9.289063h-62.699219v11.03125h98.691406v-35.414063zm0 0" fill="#ffa300"/><path d="m272.738281 370.355469h-16.550781v15.089843c0 5.132813-4.15625 9.289063-9.285156 9.289063h-62.699219v11.03125h98.691406v-25.253906c0-5.609375-4.546875-10.15625-10.15625-10.15625zm0 0" fill="#ffa300"/><path d="m480.269531 441.175781h-98.691406v-26.664062c0-4.832031 3.917969-8.746094 8.75-8.746094h81.191406c4.832031 0 8.75 3.914063 8.75 8.746094zm0 0" fill="#ffc50d"/><path d="m470.113281 405.765625h-16.550781v15.09375c0 5.128906-4.15625 9.289063-9.285156 9.289063h-62.699219v11.027343h98.691406v-25.253906c0-5.609375-4.546875-10.15625-10.15625-10.15625zm0 0" fill="#ffa300"/><path d="m372.832031 512h-81.191406c-4.832031 0-8.75-3.914062-8.75-8.746094v-26.664062h98.6875v26.664062c0 4.832032-3.914063 8.746094-8.746094 8.746094zm0 0" fill="#ffc50d"/><path d="m282.894531 441.175781h98.6875v35.414063h-98.6875zm0 0" fill="#ffc50d"/><path d="m282.894531 405.765625h98.6875v35.410156h-98.6875zm0 0" fill="#ffc50d"/><path d="m354.878906 476.589844v15.09375c0 5.128906-4.160156 9.285156-9.289062 9.285156h-62.695313v.875c0 5.609375 4.546875 10.15625 10.152344 10.15625h78.378906c5.609375 0 10.152344-4.546875 10.152344-10.15625v-25.253906zm0 0" fill="#ffa300"/><path d="m354.878906 441.175781v15.09375c0 5.128907-4.160156 9.289063-9.289062 9.289063h-62.695313v11.03125h98.6875v-35.414063zm0 0" fill="#ffa300"/><path d="m354.878906 405.765625v15.09375c0 5.128906-4.160156 9.289063-9.289062 9.289063h-62.695313v11.027343h98.6875v-35.410156zm0 0" fill="#ffa300"/><path d="m282.894531 370.355469h98.6875v35.410156h-98.6875zm0 0" fill="#ffc50d"/><path d="m354.878906 370.355469v15.089843c0 5.132813-4.160156 9.289063-9.289062 9.289063h-62.695313v11.03125h98.6875v-35.410156zm0 0" fill="#ffa300"/><path d="m282.894531 334.941406h98.6875v35.414063h-98.6875zm0 0" fill="#ffc50d"/><path d="m381.578125 334.941406h-98.6875v-26.664062c0-4.832032 3.917969-8.746094 8.75-8.746094h81.191406c4.832031 0 8.746094 3.914062 8.746094 8.746094zm0 0" fill="#ffc50d"/><path d="m354.878906 334.941406v15.09375c0 5.128906-4.160156 9.289063-9.289062 9.289063h-62.695313v11.03125h98.6875v-35.414063zm0 0" fill="#ffa300"/><path d="m371.425781 299.53125h-16.546875v15.09375c0 5.128906-4.160156 9.285156-9.289062 9.285156h-62.695313v11.03125h98.6875v-25.253906c-.003906-5.609375-4.546875-10.15625-10.15625-10.15625zm0 0" fill="#ffa300"/></svg>