<?xml version="1.0"?>
<svg xmlns="http://www.w3.org/2000/svg" viewBox="0 0 256 256" width="512" height="512"><path d="M167.31,181.79a18.606,18.606,0,0,0,18.62,18.62h40.85v40.28a9,9,0,0,1-9.01,9.01H32.15a9,9,0,0,1-9.01-9.01V109.07A13.956,13.956,0,0,0,37.5,123.01H217.77a9,9,0,0,1,9.01,9.01v31.15H185.93A18.618,18.618,0,0,0,167.31,181.79Z" fill="#72c1e8"/><path d="M226.78,104.11v27.91a9,9,0,0,0-9.01-9.01H37.5a13.958,13.958,0,1,1-.41-27.91h68.16c-.43,3.28-.88,6.65-1.85,13.97h49.2c-.98-7.31-1.42-10.69-1.86-13.97h67.03A9.011,9.011,0,0,1,226.78,104.11Z" fill="#afafaf"/><path d="M228.35,163.17H185.93a18.62,18.62,0,0,0,0,37.24h42.42a4.509,4.509,0,0,0,4.51-4.5V167.68A4.511,4.511,0,0,0,228.35,163.17Z" fill="#afafaf"/><circle cx="186.894" cy="181.793" r="7.582" fill="#72c1e8"/><path d="M200.229,222.037h-4a2.5,2.5,0,0,1,0-5h4a2.5,2.5,0,0,1,0,5Zm-14,0H45.515a2.5,2.5,0,0,1-2.5-2.5V158.251a2.5,2.5,0,0,1,5,0v58.786H186.229a2.5,2.5,0,0,1,0,5Z" fill="#c5e5ff"/><path d="M204.856,185.537h-1.038a2.5,2.5,0,0,0,0,5h1.038a2.5,2.5,0,0,0,0-5Z" fill="#efefef"/><path d="M221.5,171.183a2.5,2.5,0,0,0-2.5,2.5v11.854h-4.145a2.5,2.5,0,0,0,0,5H221.5a2.5,2.5,0,0,0,2.5-2.5V173.683A2.5,2.5,0,0,0,221.5,171.183Z" fill="#efefef"/><path d="M144.86,50.64h18.02L128,6.29,93.12,50.64h18.02c-4.28,32.3-5.06,38.21-5.89,44.46-.43,3.28-.88,6.65-1.85,13.97h49.2c-.98-7.31-1.42-10.69-1.86-13.97C149.91,88.84,149.13,82.95,144.86,50.64Z" fill="#fc5d3d"/><path d="M139.216,99.74H116.777A2.5,2.5,0,0,1,114.3,96.9L120.151,54a2.5,2.5,0,1,1,4.954.676L119.641,94.74h19.575a2.5,2.5,0,0,1,0,5Z" fill="#ffcbc2"/><path d="M229.281,160.741c0-7.115,0-49.687,0-56.631A11.523,11.523,0,0,0,217.771,92.6h-64.84c-2.587-19.575.622,4.656-5.221-39.46h15.17a2.5,2.5,0,0,0,1.97-4.04l-8.57-10.9a2.553,2.553,0,0,0-3.51-.41,2.488,2.488,0,0,0-.42,3.51l5.39,6.849H144.86a2.5,2.5,0,0,0-2.48,2.821c5.846,44.156,7.364,55.59,7.364,55.59H106.255s2.851-21.467,7.365-55.59a2.5,2.5,0,0,0-2.48-2.821H98.26L128,10.34l11.98,15.24a2.566,2.566,0,0,0,3.52.41,2.5,2.5,0,0,0,.41-3.511L129.96,4.75a2.491,2.491,0,0,0-3.93,0L91.15,49.1a2.5,2.5,0,0,0,1.97,4.04h15.16c-3.048,23.043-5.221,39.46-5.221,39.46H37.09a16.424,16.424,0,0,0-16.449,16.47V240.7a11.522,11.522,0,0,0,11.509,11.51h185.62a11.523,11.523,0,0,0,11.51-11.51V202.841a7.017,7.017,0,0,0,6.079-6.942V167.68A7.027,7.027,0,0,0,229.281,160.741ZM37.09,97.6H102.4c-.767,5.81-.469,3.564-1.188,8.96H45.51a2.5,2.5,0,1,0,0,5H209.12a2.5,2.5,0,0,0,.01-5H154.784c-.181-1.342-.048-.335-1.191-8.96h64.178a6.517,6.517,0,0,1,6.509,6.51v18.422a11.624,11.624,0,0,0-6.509-2.025H37.5a11.4,11.4,0,0,1-11.859-11.44v-.007A11.427,11.427,0,0,1,37.09,97.6ZM217.771,247.207H32.151a6.517,6.517,0,0,1-6.509-6.51V120.856A16.939,16.939,0,0,0,37.5,125.51H217.771a6.517,6.517,0,0,1,6.509,6.51v28.65H185.93a21.12,21.12,0,0,0,0,42.24h38.351V240.7A6.517,6.517,0,0,1,217.771,247.207ZM230.36,195.9a2.01,2.01,0,0,1-2.01,2.011H185.93a16.12,16.12,0,0,1,0-32.24h42.42a2.009,2.009,0,0,1,2.01,2.01Z"/><path d="M186.89,171.71a10.08,10.08,0,1,0,10.09,10.08A10.095,10.095,0,0,0,186.89,171.71Zm0,15.16a5.08,5.08,0,1,1,5.09-5.08A5.1,5.1,0,0,1,186.89,186.87Z"/><path d="M75.51,145.75H203.82a2.5,2.5,0,0,0,0-5H75.51a2.5,2.5,0,1,0,0,5Z"/><path d="M45.52,145.75h9.99a2.5,2.5,0,0,0,0-5H45.52a2.5,2.5,0,1,0,0,5Z"/><path d="M65.51,145.75a2.5,2.5,0,1,0-2.49-2.5A2.5,2.5,0,0,0,65.51,145.75Z"/><path d="M203.82,231.35h-10a2.5,2.5,0,0,0,0,5h10a2.5,2.5,0,0,0,0-5Z"/><circle cx="183.82" cy="233.85" r="2.5"/><path d="M173.82,231.35H45.52a2.5,2.5,0,0,0,0,5h128.3a2.5,2.5,0,0,0,0-5Z"/><path d="M149.68,33.85a2.507,2.507,0,0,0,.42-3.51,2.554,2.554,0,0,0-3.51-.41,2.5,2.5,0,1,0,3.09,3.92Z"/></svg>
