<?xml version="1.0"?>
<svg xmlns="http://www.w3.org/2000/svg" viewBox="0 0 256 256" width="512" height="512"><path d="M167.31,181.791a18.606,18.606,0,0,0,18.62,18.62h40.85v40.28a9.011,9.011,0,0,1-9.01,9.01H32.15a9,9,0,0,1-9.01-9.01V109.071a13.956,13.956,0,0,0,14.36,13.94H217.77a9.011,9.011,0,0,1,9.01,9.01v31.15H185.93A18.618,18.618,0,0,0,167.31,181.791Z" fill="#72c1e8"/><path d="M226.78,104.111v27.91a9.011,9.011,0,0,0-9.01-9.01H37.5a13.958,13.958,0,1,1-.41-27.91h79.92L128,109.071,138.99,95.1h78.78A9.018,9.018,0,0,1,226.78,104.111Z" fill="#afafaf"/><path d="M228.35,163.171H185.93a18.62,18.62,0,0,0,0,37.24h42.42a4.509,4.509,0,0,0,4.51-4.5v-28.23A4.511,4.511,0,0,0,228.35,163.171Z" fill="#afafaf"/><circle cx="186.893" cy="181.794" r="7.582" fill="#72c1e8"/><path d="M200.228,222.038h-4a2.5,2.5,0,0,1,0-5h4a2.5,2.5,0,0,1,0,5Zm-14,0H45.514a2.5,2.5,0,0,1-2.5-2.5V158.252a2.5,2.5,0,0,1,5,0v58.786H186.228a2.5,2.5,0,0,1,0,5Z" fill="#c5e5ff"/><path d="M221.5,190.538h-6.646a2.5,2.5,0,0,1,0-5H219V173.684a2.5,2.5,0,0,1,5,0v14.354A2.5,2.5,0,0,1,221.5,190.538Zm-16.646,0h-1.038a2.5,2.5,0,0,1,0-5h1.038a2.5,2.5,0,1,1,0,5Z" fill="#efefef"/><path d="M144.86,64.721c6.52-49.25,4.91-37.15,7.74-58.43H103.4c2.83,21.3,1.23,9.22,7.74,58.43H93.11l23.9,30.38L128,109.071,138.99,95.1l23.89-30.38Z" fill="#13bf6d"/><path d="M133.031,63.5a2.5,2.5,0,0,1-2.139-2.815l5.464-40.065H116.781a2.5,2.5,0,1,1,0-5H139.22a2.5,2.5,0,0,1,2.477,2.838l-5.851,42.9A2.5,2.5,0,0,1,133.031,63.5Z" fill="#76ffba"/><path d="M229.281,160.741c0-7.116,0-49.687,0-56.629A11.523,11.523,0,0,0,217.77,92.6H144.128l20.722-26.34a2.5,2.5,0,0,0-1.97-4.04H147.71s2.955-22.327,7.37-55.6a2.51,2.51,0,0,0-2.15-2.81,2.537,2.537,0,0,0-2.81,2.15c-.664,4.988-4.834,36.433-7.74,58.43a2.5,2.5,0,0,0,2.48,2.82h12.87L128,105.021l-13.84-17.59a2.556,2.556,0,0,0-3.51-.42,2.49,2.49,0,0,0-.42,3.51l.01.011,1.627,2.069H37.09a16.426,16.426,0,0,0-16.45,16.471V240.7a11.522,11.522,0,0,0,11.51,11.509h185.62a11.522,11.522,0,0,0,11.51-11.509V202.842a7.013,7.013,0,0,0,6.079-6.931v-28.23A7.022,7.022,0,0,0,229.281,160.741ZM37.09,97.6H115.8l7.046,8.96H45.52a2.5,2.5,0,1,0,0,5h163.6a2.5,2.5,0,0,0,.01-5H133.146L140.2,97.6H217.77a6.518,6.518,0,0,1,6.51,6.511v18.422a11.734,11.734,0,0,0-6.509-2.026H37.5a11.4,11.4,0,0,1-11.86-11.439v-.008A11.427,11.427,0,0,1,37.09,97.6ZM217.771,247.208H32.151a6.517,6.517,0,0,1-6.51-6.509V120.858A16.959,16.959,0,0,0,37.5,125.511H217.77a6.518,6.518,0,0,1,6.51,6.51v28.65H185.93a21.12,21.12,0,0,0,0,42.24h38.351V240.7A6.517,6.517,0,0,1,217.771,247.208Zm12.589-51.3a2.008,2.008,0,0,1-2.01,2H185.93a16.12,16.12,0,0,1,0-32.24h42.42a2.01,2.01,0,0,1,2.01,2.01Z"/><path d="M186.89,171.711a10.08,10.08,0,1,0,10.08,10.08A10.1,10.1,0,0,0,186.89,171.711Zm0,15.17a5.085,5.085,0,1,1,5.09-5.09A5.115,5.115,0,0,1,186.89,186.881Z"/><path d="M45.51,145.751h10a2.5,2.5,0,0,0,0-5h-10a2.5,2.5,0,1,0,0,5Z"/><path d="M75.51,145.751H203.82a2.5,2.5,0,0,0,0-5H75.51a2.5,2.5,0,0,0,0,5Z"/><circle cx="65.51" cy="143.251" r="2.5"/><path d="M203.82,231.351h-10a2.5,2.5,0,0,0,0,5h10a2.5,2.5,0,0,0,0-5Z"/><circle cx="183.82" cy="233.851" r="2.5"/><path d="M173.82,231.351H45.51a2.5,2.5,0,1,0,0,5H173.82a2.5,2.5,0,0,0,0-5Z"/><path d="M97.86,74.8a2.5,2.5,0,0,0,3.93-3.09l-3.53-4.5h12.88a2.5,2.5,0,0,0,2.48-2.82c-7.407-55.934-5.731-43.307-7.74-58.43a2.5,2.5,0,0,0-4.96.66c2.855,21.514,1.272,9.569,7.36,55.6H93.11a2.5,2.5,0,0,0-1.96,4.04Z"/><path d="M104.46,79.151a2.5,2.5,0,1,0,3.52.41A2.575,2.575,0,0,0,104.46,79.151Z"/></svg>
